<?xml version="1.0" encoding="UTF-8"?>
<svg id="Layer_2" data-name="Layer 2" xmlns="http://www.w3.org/2000/svg" viewBox="0 0 108.8 108.89">
   <path fill="#000000" fill-opacity="0.5" stroke="#6d28d9" stroke-width="5" d="M108.19,63.76c-6.8-1.29-14.24-2.59-20.07-6.8-1.62-2.91.97-5.5,2.91-7.77,4.85-6.8,8.74-12.95,10.68-21.04.32-2.27-.65-5.5-3.24-5.18-5.18,4.53-11.65,8.09-18.45,9.06-1.62.32-2.59-1.29-2.91-2.59-.97-9.06-3.56-17.8-7.12-25.89-.97-1.94-2.91-3.56-5.18-3.56-2.27.32-1.62,3.24-1.94,4.85-1.29,5.83-2.59,11.33-6.15,15.86-.97,1.29-2.59.65-3.88,0-8.09-5.83-15.54-11-24.92-13.59-1.62-.32-2.91.32-4.21.97s-.65,1.62-.65,2.27c3.56,6.15,8.09,11.33,9.06,18.45,0,1.62-1.29,2.59-2.59,2.59-9.39,1.29-17.8,3.56-26.22,7.44-2.27,1.29-4.21,3.88-2.91,6.47,6.8.97,13.27,2.27,19.42,6.15,1.29.65,1.94,1.94,1.29,3.24-3.56,6.15-8.09,11.33-11,17.8-1.29,2.91-2.27,5.5-3.24,8.41-.32,1.94.32,3.88,1.94,4.85.65.32,1.62.32,2.27-.32l.97-.97c.97-.32,1.62-.97,2.27-1.62,4.85-2.59,9.06-6.15,14.56-5.83.97,0,1.94,0,2.27,1.29.97,3.88.97,7.44,1.94,11.33.32,1.29.65,2.27.97,3.56,1.62,4.53,2.59,9.06,5.5,13.27.97,1.62,3.24,3.24,5.5,1.94,1.29-5.5,1.94-10.68,4.21-15.86,1.29-2.27,2.59-5.83,5.5-4.53,1.62.65,3.24,1.94,4.85,3.24,6.47,4.85,13.59,8.09,21.04,10.68,1.29.32,2.59,0,3.56-.65.65-.65,2.27-1.62,1.62-2.59-4.21-5.83-8.09-11.98-9.39-18.77.65-2.59,3.56-2.91,5.83-2.91,8.41-.97,16.18-3.56,23.95-7.44,1.62-.97,3.56-3.88,1.94-5.83Z"/>
</svg>